<svg width="127" height="12" viewBox="0 0 127 12" fill="none" xmlns="http://www.w3.org/2000/svg">
<path d="M2.7619 12V9.61905H0.380952V0.0952382H5.14286V9.61905H7.52381V0.0952382H12.2857V9.61905H9.90476V12H2.7619ZM16.7078 12V9.61905H23.8506V7.2381H19.0887V4.85714H16.7078V2.47619H19.0887V0.0952382H28.6125V2.47619H21.4697V4.85714H26.2316V7.2381H28.6125V9.61905H26.2316V12H16.7078ZM42.5584 2.47619H37.7965V4.85714H42.5584V7.2381H37.7965V9.61905H42.5584V12H33.0346V0.0952382H42.5584V2.47619ZM46.9786 12V0.0952382H56.5024V2.47619H58.8834V4.85714H56.5024V9.61905H58.8834V12H54.1215V9.61905H51.7405V12H46.9786ZM51.7405 4.85714H54.1215V2.47619H51.7405V4.85714ZM63.3054 12V0.0952382H68.0673V2.47619H70.4483V4.85714H72.8292V0.0952382H77.5911V12H72.8292V9.61905H70.4483V7.2381H68.0673V12H63.3054ZM91.5389 2.47619H93.9198V12H89.1579V7.2381H86.777V12H82.0151V2.47619H84.396V0.0952382H91.5389V2.47619ZM86.777 4.85714H89.1579V2.47619H86.777V4.85714ZM98.3419 12V0.0952382H103.104V2.47619H107.866V0.0952382H112.628V12H107.866V7.2381H103.104V12H98.3419ZM126.575 2.47619H121.813V4.85714H126.575V7.2381H121.813V9.61905H126.575V12H117.052V0.0952382H126.575V2.47619Z" fill="#2E132C"/>
<path d="M2.7619 12H-2.2381V17H2.7619V12ZM2.7619 9.61905H7.7619V4.61905H2.7619V9.61905ZM0.380952 9.61905H-4.61905V14.619H0.380952V9.61905ZM0.380952 0.0952382V-4.90476H-4.61905V0.0952382H0.380952ZM5.14286 0.0952382H10.1429V-4.90476H5.14286V0.0952382ZM5.14286 9.61905H0.142857V14.619H5.14286V9.61905ZM7.52381 9.61905V14.619H12.5238V9.61905H7.52381ZM7.52381 0.0952382V-4.90476H2.52381V0.0952382H7.52381ZM12.2857 0.0952382H17.2857V-4.90476H12.2857V0.0952382ZM12.2857 9.61905V14.619H17.2857V9.61905H12.2857ZM9.90476 9.61905V4.61905H4.90476V9.61905H9.90476ZM9.90476 12V17H14.9048V12H9.90476ZM7.7619 12V9.61905H-2.2381V12H7.7619ZM2.7619 4.61905H0.380952V14.619H2.7619V4.61905ZM5.38095 9.61905V0.0952382H-4.61905V9.61905H5.38095ZM0.380952 5.09524H5.14286V-4.90476H0.380952V5.09524ZM0.142857 0.0952382V9.61905H10.1429V0.0952382H0.142857ZM5.14286 14.619H7.52381V4.61905H5.14286V14.619ZM12.5238 9.61905V0.0952382H2.52381V9.61905H12.5238ZM7.52381 5.09524H12.2857V-4.90476H7.52381V5.09524ZM7.28572 0.0952382V9.61905H17.2857V0.0952382H7.28572ZM12.2857 4.61905H9.90476V14.619H12.2857V4.61905ZM4.90476 9.61905V12H14.9048V9.61905H4.90476ZM9.90476 7H2.7619V17H9.90476V7ZM16.7078 12H11.7078V17H16.7078V12ZM16.7078 9.61905V4.61905H11.7078V9.61905H16.7078ZM23.8506 9.61905V14.619H28.8506V9.61905H23.8506ZM23.8506 7.2381H28.8506V2.2381H23.8506V7.2381ZM19.0887 7.2381H14.0887V12.2381H19.0887V7.2381ZM19.0887 4.85714H24.0887V-0.142857H19.0887V4.85714ZM16.7078 4.85714H11.7078V9.85714H16.7078V4.85714ZM16.7078 2.47619V-2.52381H11.7078V2.47619H16.7078ZM19.0887 2.47619V7.47619H24.0887V2.47619H19.0887ZM19.0887 0.0952382V-4.90476H14.0887V0.0952382H19.0887ZM28.6125 0.0952382H33.6125V-4.90476H28.6125V0.0952382ZM28.6125 2.47619V7.47619H33.6125V2.47619H28.6125ZM21.4697 2.47619V-2.52381H16.4697V2.47619H21.4697ZM21.4697 4.85714H16.4697V9.85714H21.4697V4.85714ZM26.2316 4.85714H31.2316V-0.142857H26.2316V4.85714ZM26.2316 7.2381H21.2316V12.2381H26.2316V7.2381ZM28.6125 7.2381H33.6125V2.2381H28.6125V7.2381ZM28.6125 9.61905V14.619H33.6125V9.61905H28.6125ZM26.2316 9.61905V4.61905H21.2316V9.61905H26.2316ZM26.2316 12V17H31.2316V12H26.2316ZM21.7078 12V9.61905H11.7078V12H21.7078ZM16.7078 14.619H23.8506V4.61905H16.7078V14.619ZM28.8506 9.61905V7.2381H18.8506V9.61905H28.8506ZM23.8506 2.2381H19.0887V12.2381H23.8506V2.2381ZM24.0887 7.2381V4.85714H14.0887V7.2381H24.0887ZM19.0887 -0.142857H16.7078V9.85714H19.0887V-0.142857ZM21.7078 4.85714V2.47619H11.7078V4.85714H21.7078ZM16.7078 7.47619H19.0887V-2.52381H16.7078V7.47619ZM24.0887 2.47619V0.0952382H14.0887V2.47619H24.0887ZM19.0887 5.09524H28.6125V-4.90476H19.0887V5.09524ZM23.6125 0.0952382V2.47619H33.6125V0.0952382H23.6125ZM28.6125 -2.52381H21.4697V7.47619H28.6125V-2.52381ZM16.4697 2.47619V4.85714H26.4697V2.47619H16.4697ZM21.4697 9.85714H26.2316V-0.142857H21.4697V9.85714ZM21.2316 4.85714V7.2381H31.2316V4.85714H21.2316ZM26.2316 12.2381H28.6125V2.2381H26.2316V12.2381ZM23.6125 7.2381V9.61905H33.6125V7.2381H23.6125ZM28.6125 4.61905H26.2316V14.619H28.6125V4.61905ZM21.2316 9.61905V12H31.2316V9.61905H21.2316ZM26.2316 7H16.7078V17H26.2316V7ZM42.5584 2.47619V7.47619H47.5584V2.47619H42.5584ZM37.7965 2.47619V-2.52381H32.7965V2.47619H37.7965ZM37.7965 4.85714H32.7965V9.85714H37.7965V4.85714ZM42.5584 4.85714H47.5584V-0.142857H42.5584V4.85714ZM42.5584 7.2381V12.2381H47.5584V7.2381H42.5584ZM37.7965 7.2381V2.2381H32.7965V7.2381H37.7965ZM37.7965 9.61905H32.7965V14.619H37.7965V9.61905ZM42.5584 9.61905H47.5584V4.61905H42.5584V9.61905ZM42.5584 12V17H47.5584V12H42.5584ZM33.0346 12H28.0346V17H33.0346V12ZM33.0346 0.0952382V-4.90476H28.0346V0.0952382H33.0346ZM42.5584 0.0952382H47.5584V-4.90476H42.5584V0.0952382ZM42.5584 -2.52381H37.7965V7.47619H42.5584V-2.52381ZM32.7965 2.47619V4.85714H42.7965V2.47619H32.7965ZM37.7965 9.85714H42.5584V-0.142857H37.7965V9.85714ZM37.5584 4.85714V7.2381H47.5584V4.85714H37.5584ZM42.5584 2.2381H37.7965V12.2381H42.5584V2.2381ZM32.7965 7.2381V9.61905H42.7965V7.2381H32.7965ZM37.7965 14.619H42.5584V4.61905H37.7965V14.619ZM37.5584 9.61905V12H47.5584V9.61905H37.5584ZM42.5584 7H33.0346V17H42.5584V7ZM38.0346 12V0.0952382H28.0346V12H38.0346ZM33.0346 5.09524H42.5584V-4.90476H33.0346V5.09524ZM37.5584 0.0952382V2.47619H47.5584V0.0952382H37.5584ZM46.9786 12H41.9786V17H46.9786V12ZM46.9786 0.0952382V-4.90476H41.9786V0.0952382H46.9786ZM56.5024 0.0952382H61.5024V-4.90476H56.5024V0.0952382ZM56.5024 2.47619H51.5024V7.47619H56.5024V2.47619ZM58.8834 2.47619H63.8834V-2.52381H58.8834V2.47619ZM58.8834 4.85714V9.85714H63.8834V4.85714H58.8834ZM56.5024 4.85714V-0.142857H51.5024V4.85714H56.5024ZM56.5024 9.61905H51.5024V14.619H56.5024V9.61905ZM58.8834 9.61905H63.8834V4.61905H58.8834V9.61905ZM58.8834 12V17H63.8834V12H58.8834ZM54.1215 12H49.1215V17H54.1215V12ZM54.1215 9.61905H59.1215V4.61905H54.1215V9.61905ZM51.7405 9.61905V4.61905H46.7405V9.61905H51.7405ZM51.7405 12V17H56.7405V12H51.7405ZM51.7405 4.85714H46.7405V9.85714H51.7405V4.85714ZM54.1215 4.85714V9.85714H59.1215V4.85714H54.1215ZM54.1215 2.47619H59.1215V-2.52381H54.1215V2.47619ZM51.7405 2.47619V-2.52381H46.7405V2.47619H51.7405ZM51.9786 12V0.0952382H41.9786V12H51.9786ZM46.9786 5.09524H56.5024V-4.90476H46.9786V5.09524ZM51.5024 0.0952382V2.47619H61.5024V0.0952382H51.5024ZM56.5024 7.47619H58.8834V-2.52381H56.5024V7.47619ZM53.8834 2.47619V4.85714H63.8834V2.47619H53.8834ZM58.8834 -0.142857H56.5024V9.85714H58.8834V-0.142857ZM51.5024 4.85714V9.61905H61.5024V4.85714H51.5024ZM56.5024 14.619H58.8834V4.61905H56.5024V14.619ZM53.8834 9.61905V12H63.8834V9.61905H53.8834ZM58.8834 7H54.1215V17H58.8834V7ZM59.1215 12V9.61905H49.1215V12H59.1215ZM54.1215 4.61905H51.7405V14.619H54.1215V4.61905ZM46.7405 9.61905V12H56.7405V9.61905H46.7405ZM51.7405 7H46.9786V17H51.7405V7ZM51.7405 9.85714H54.1215V-0.142857H51.7405V9.85714ZM59.1215 4.85714V2.47619H49.1215V4.85714H59.1215ZM54.1215 -2.52381H51.7405V7.47619H54.1215V-2.52381ZM46.7405 2.47619V4.85714H56.7405V2.47619H46.7405ZM63.3054 12H58.3054V17H63.3054V12ZM63.3054 0.0952382V-4.90476H58.3054V0.0952382H63.3054ZM68.0673 0.0952382H73.0673V-4.90476H68.0673V0.0952382ZM68.0673 2.47619H63.0673V7.47619H68.0673V2.47619ZM70.4483 2.47619H75.4483V-2.52381H70.4483V2.47619ZM70.4483 4.85714H65.4483V9.85714H70.4483V4.85714ZM72.8292 4.85714V9.85714H77.8292V4.85714H72.8292ZM72.8292 0.0952382V-4.90476H67.8292V0.0952382H72.8292ZM77.5911 0.0952382H82.5911V-4.90476H77.5911V0.0952382ZM77.5911 12V17H82.5911V12H77.5911ZM72.8292 12H67.8292V17H72.8292V12ZM72.8292 9.61905H77.8292V4.61905H72.8292V9.61905ZM70.4483 9.61905H65.4483V14.619H70.4483V9.61905ZM70.4483 7.2381H75.4483V2.2381H70.4483V7.2381ZM68.0673 7.2381V2.2381H63.0673V7.2381H68.0673ZM68.0673 12V17H73.0673V12H68.0673ZM68.3054 12V0.0952382H58.3054V12H68.3054ZM63.3054 5.09524H68.0673V-4.90476H63.3054V5.09524ZM63.0673 0.0952382V2.47619H73.0673V0.0952382H63.0673ZM68.0673 7.47619H70.4483V-2.52381H68.0673V7.47619ZM65.4483 2.47619V4.85714H75.4483V2.47619H65.4483ZM70.4483 9.85714H72.8292V-0.142857H70.4483V9.85714ZM77.8292 4.85714V0.0952382H67.8292V4.85714H77.8292ZM72.8292 5.09524H77.5911V-4.90476H72.8292V5.09524ZM72.5911 0.0952382V12H82.5911V0.0952382H72.5911ZM77.5911 7H72.8292V17H77.5911V7ZM77.8292 12V9.61905H67.8292V12H77.8292ZM72.8292 4.61905H70.4483V14.619H72.8292V4.61905ZM75.4483 9.61905V7.2381H65.4483V9.61905H75.4483ZM70.4483 2.2381H68.0673V12.2381H70.4483V2.2381ZM63.0673 7.2381V12H73.0673V7.2381H63.0673ZM68.0673 7H63.3054V17H68.0673V7ZM91.5389 2.47619H86.5389V7.47619H91.5389V2.47619ZM93.9198 2.47619H98.9198V-2.52381H93.9198V2.47619ZM93.9198 12V17H98.9198V12H93.9198ZM89.1579 12H84.1579V17H89.1579V12ZM89.1579 7.2381H94.1579V2.2381H89.1579V7.2381ZM86.777 7.2381V2.2381H81.777V7.2381H86.777ZM86.777 12V17H91.777V12H86.777ZM82.0151 12H77.0151V17H82.0151V12ZM82.0151 2.47619V-2.52381H77.0151V2.47619H82.0151ZM84.396 2.47619V7.47619H89.396V2.47619H84.396ZM84.396 0.0952382V-4.90476H79.396V0.0952382H84.396ZM91.5389 0.0952382H96.5389V-4.90476H91.5389V0.0952382ZM86.777 4.85714H81.777V9.85714H86.777V4.85714ZM89.1579 4.85714V9.85714H94.1579V4.85714H89.1579ZM89.1579 2.47619H94.1579V-2.52381H89.1579V2.47619ZM86.777 2.47619V-2.52381H81.777V2.47619H86.777ZM91.5389 7.47619H93.9198V-2.52381H91.5389V7.47619ZM88.9198 2.47619V12H98.9198V2.47619H88.9198ZM93.9198 7H89.1579V17H93.9198V7ZM94.1579 12V7.2381H84.1579V12H94.1579ZM89.1579 2.2381H86.777V12.2381H89.1579V2.2381ZM81.777 7.2381V12H91.777V7.2381H81.777ZM86.777 7H82.0151V17H86.777V7ZM87.0151 12V2.47619H77.0151V12H87.0151ZM82.0151 7.47619H84.396V-2.52381H82.0151V7.47619ZM89.396 2.47619V0.0952382H79.396V2.47619H89.396ZM84.396 5.09524H91.5389V-4.90476H84.396V5.09524ZM86.5389 0.0952382V2.47619H96.5389V0.0952382H86.5389ZM86.777 9.85714H89.1579V-0.142857H86.777V9.85714ZM94.1579 4.85714V2.47619H84.1579V4.85714H94.1579ZM89.1579 -2.52381H86.777V7.47619H89.1579V-2.52381ZM81.777 2.47619V4.85714H91.777V2.47619H81.777ZM98.3419 12H93.3419V17H98.3419V12ZM98.3419 0.0952382V-4.90476H93.3419V0.0952382H98.3419ZM103.104 0.0952382H108.104V-4.90476H103.104V0.0952382ZM103.104 2.47619H98.1038V7.47619H103.104V2.47619ZM107.866 2.47619V7.47619H112.866V2.47619H107.866ZM107.866 0.0952382V-4.90476H102.866V0.0952382H107.866ZM112.628 0.0952382H117.628V-4.90476H112.628V0.0952382ZM112.628 12V17H117.628V12H112.628ZM107.866 12H102.866V17H107.866V12ZM107.866 7.2381H112.866V2.2381H107.866V7.2381ZM103.104 7.2381V2.2381H98.1038V7.2381H103.104ZM103.104 12V17H108.104V12H103.104ZM103.342 12V0.0952382H93.3419V12H103.342ZM98.3419 5.09524H103.104V-4.90476H98.3419V5.09524ZM98.1038 0.0952382V2.47619H108.104V0.0952382H98.1038ZM103.104 7.47619H107.866V-2.52381H103.104V7.47619ZM112.866 2.47619V0.0952382H102.866V2.47619H112.866ZM107.866 5.09524H112.628V-4.90476H107.866V5.09524ZM107.628 0.0952382V12H117.628V0.0952382H107.628ZM112.628 7H107.866V17H112.628V7ZM112.866 12V7.2381H102.866V12H112.866ZM107.866 2.2381H103.104V12.2381H107.866V2.2381ZM98.1038 7.2381V12H108.104V7.2381H98.1038ZM103.104 7H98.3419V17H103.104V7ZM126.575 2.47619V7.47619H131.575V2.47619H126.575ZM121.813 2.47619V-2.52381H116.813V2.47619H121.813ZM121.813 4.85714H116.813V9.85714H121.813V4.85714ZM126.575 4.85714H131.575V-0.142857H126.575V4.85714ZM126.575 7.2381V12.2381H131.575V7.2381H126.575ZM121.813 7.2381V2.2381H116.813V7.2381H121.813ZM121.813 9.61905H116.813V14.619H121.813V9.61905ZM126.575 9.61905H131.575V4.61905H126.575V9.61905ZM126.575 12V17H131.575V12H126.575ZM117.052 12H112.052V17H117.052V12ZM117.052 0.0952382V-4.90476H112.052V0.0952382H117.052ZM126.575 0.0952382H131.575V-4.90476H126.575V0.0952382ZM126.575 -2.52381H121.813V7.47619H126.575V-2.52381ZM116.813 2.47619V4.85714H126.813V2.47619H116.813ZM121.813 9.85714H126.575V-0.142857H121.813V9.85714ZM121.575 4.85714V7.2381H131.575V4.85714H121.575ZM126.575 2.2381H121.813V12.2381H126.575V2.2381ZM116.813 7.2381V9.61905H126.813V7.2381H116.813ZM121.813 14.619H126.575V4.61905H121.813V14.619ZM121.575 9.61905V12H131.575V9.61905H121.575ZM126.575 7H117.052V17H126.575V7ZM122.052 12V0.0952382H112.052V12H122.052ZM117.052 5.09524H126.575V-4.90476H117.052V5.09524ZM121.575 0.0952382V2.47619H131.575V0.0952382H121.575Z" fill="#800FFF"/>
</svg>
